<svg xmlns="http://www.w3.org/2000/svg" viewBox="0 0 512 512" width="512" height="512">
  <defs>
    <linearGradient id="bgGrad" x1="0%" y1="0%" x2="100%" y2="100%">
      <stop offset="0%" stop-color="#091322"/>
      <stop offset="50%" stop-color="#0f172a"/>
      <stop offset="100%" stop-color="#030712"/>
    </linearGradient>
    <linearGradient id="dropGrad" x1="0%" y1="0%" x2="100%" y2="100%">
      <stop offset="0%" stop-color="#38bdf8"/>
      <stop offset="50%" stop-color="#06b6d4"/>
      <stop offset="100%" stop-color="#0284c7"/>
    </linearGradient>
    <linearGradient id="accentGrad" x1="0%" y1="100%" x2="100%" y2="0%">
      <stop offset="0%" stop-color="#06b6d4" stop-opacity="0.2"/>
      <stop offset="100%" stop-color="#38bdf8" stop-opacity="0.9"/>
    </linearGradient>
    <filter id="glow" x="-20%" y="-20%" width="140%" height="140%">
      <feGaussianBlur stdDeviation="16" result="blur" />
      <feComposite in="SourceGraphic" in2="blur" operator="over" />
    </filter>
  </defs>

  <rect width="512" height="512" rx="112" fill="url(#bgGrad)"/>
  <rect width="508" height="508" x="2" y="2" rx="110" fill="none" stroke="#0ea5e9" stroke-width="4" stroke-opacity="0.3"/>
  <circle cx="256" cy="270" r="140" fill="#0284c7" opacity="0.25" filter="url(#glow)"/>

  <g transform="translate(0, 10)">
    <path d="M256 90 C256 90 140 240 140 330 C140 395 192 446 256 446 C320 446 372 395 372 330 C372 240 256 90 256 90 Z" 
          fill="url(#dropGrad)" />
    <path d="M256 120 C256 120 165 248 165 325 C165 365 188 405 230 422 C200 405 185 370 185 330 C185 260 256 150 256 120 Z" 
          fill="#ffffff" opacity="0.45" />
    <path d="M170 335 Q210 310 256 335 T342 335 C336 385 300 425 256 425 C212 425 176 385 170 335 Z" 
          fill="url(#accentGrad)" />
    <circle cx="280" cy="230" r="14" fill="#ffffff" opacity="0.8"/>
  </g>
</svg>